<svg width="28" height="30" viewBox="0 0 28 30" fill="none" xmlns="http://www.w3.org/2000/svg">
<path d="M26.2095 0.404212C26.1696 0.257364 26.0701 0.13381 25.9351 0.0634767C25.6687 -0.0774911 25.3385 0.0242017 25.1974 0.290608C25.197 0.291287 25.1967 0.291965 25.1964 0.292644C25.1964 0.307721 22.4313 5.67204 13.9431 6.6068C12.8358 6.72492 11.7535 7.0138 10.7347 7.46316C8.9111 8.25597 7.40501 9.6358 6.45592 11.3831C5.56986 13.0245 5.20289 14.8961 5.40356 16.7505C5.55139 18.1022 6.00287 19.4031 6.72429 20.5558C5.21661 21.6383 0.434259 25.3804 0.00306279 29.3969C-0.0285984 29.6966 0.188809 29.9653 0.488535 29.9969C0.788337 30.0286 1.05693 29.8112 1.08859 29.5114C1.4836 25.9262 5.97045 22.4495 7.36958 21.4423C9.04913 23.5049 11.5639 24.6688 14.2627 24.8587C16.0791 24.976 17.8976 24.6662 19.5727 23.9541C21.3911 23.1912 22.9971 21.9981 24.2526 20.4774C27.488 16.5575 29.0289 9.96892 26.2095 0.404212ZM7.68317 20.0161C7.47511 19.6884 7.29171 19.3457 7.13438 18.9909C6.80329 18.2421 6.58973 17.4468 6.50115 16.6329C6.31646 14.9997 6.63187 13.3488 7.40576 11.8987C8.24222 10.3614 9.56905 9.14814 11.175 8.4522C12.0931 8.05243 13.0675 7.79718 14.0637 7.69534C19.6662 7.09227 22.962 4.59857 24.6626 2.78936C23.6634 6.07904 21.9431 9.10449 19.627 11.6455L19.2953 8.30444C19.2784 8.00351 19.0208 7.77321 18.7198 7.7901C18.4189 7.80698 18.1886 8.06465 18.2055 8.36558C18.2063 8.38043 18.2077 8.39528 18.2098 8.40998L18.6349 12.7038C16.099 15.2759 12.5741 17.8601 7.68317 20.0161ZM23.4083 19.7779V19.7809C22.2675 21.1697 20.8064 22.2604 19.1506 22.9591C17.6279 23.6026 15.9753 23.8794 14.326 23.7672C12.03 23.6509 9.87549 22.6229 8.34052 20.9116C10.1393 20.1157 11.8786 19.1916 13.545 18.1466L18.3364 19.0512C18.6342 19.0978 18.9134 18.8942 18.9601 18.5965C19.0051 18.3092 18.817 18.0371 18.5324 17.9777L14.8507 17.2812C16.5507 16.1136 18.1331 14.7836 19.5757 13.3099C19.6022 13.2872 19.6264 13.2619 19.6481 13.2345C23.4535 9.27237 25.0727 5.35241 25.7482 2.94013C27.6117 10.8886 26.1854 16.4188 23.4083 19.7779Z" fill="#00B307"/>
</svg>
