<svg width="26" height="27" viewBox="0 0 26 27" fill="none" xmlns="http://www.w3.org/2000/svg">
<path d="M21.9347 10.2668V9.22878C21.9347 6.74433 21.0555 4.43571 19.4616 2.72269C17.8279 0.964286 15.5817 0 13.1313 0H12.2748C9.82437 0 7.57815 0.964286 5.94454 2.72269C4.35063 4.43571 3.47143 6.74433 3.47143 9.22878V10.2668C1.53718 10.3973 0 12.0082 0 13.9765V15.5987C0 17.6464 1.66765 19.3141 3.71534 19.3141H5.8084C6.18277 19.3141 6.48908 19.0078 6.48908 18.6334V10.9361C6.48908 10.5618 6.18277 10.2555 5.8084 10.2555H4.83277V9.22878C4.83277 4.74202 8.03193 1.36134 12.2691 1.36134H13.1256C17.3685 1.36134 20.562 4.74202 20.562 9.22878V10.2555H19.5863C19.212 10.2555 18.9057 10.5618 18.9057 10.9361V18.6277C18.9057 19.0021 19.212 19.3084 19.5863 19.3084H20.5393C20.2613 22.8592 17.8166 23.6817 16.6821 23.8689C16.3702 22.9103 15.4683 22.2183 14.4076 22.2183H12.7059C11.3899 22.2183 10.3179 23.2903 10.3179 24.6063C10.3179 25.9223 11.3899 27 12.7059 27H14.4132C15.5137 27 16.4382 26.2513 16.7162 25.2416C17.2721 25.1622 18.1513 24.9637 19.0248 24.4532C20.2557 23.7328 21.7134 22.2637 21.9063 19.3027C23.8519 19.1836 25.3948 17.567 25.3948 15.5931V13.9708C25.4004 12.0082 23.8689 10.3916 21.9347 10.2668ZM5.13908 17.9471H3.72668C2.42773 17.9471 1.37269 16.892 1.37269 15.5931V13.9708C1.37269 12.6718 2.42773 11.6168 3.72668 11.6168H5.13908V17.9471ZM14.4132 25.6387H12.7059C12.1387 25.6387 11.6792 25.1792 11.6792 24.612C11.6792 24.0447 12.1387 23.5853 12.7059 23.5853H14.4132C14.9805 23.5853 15.4399 24.0447 15.4399 24.612C15.4399 25.1792 14.9805 25.6387 14.4132 25.6387ZM24.0391 15.5931C24.0391 16.892 22.984 17.9471 21.6851 17.9471H20.2727V11.6168H21.6851C22.984 11.6168 24.0391 12.6718 24.0391 13.9708V15.5931Z" fill="#00B307"/>
</svg>
