<svg width="27" height="27" viewBox="0 0 27 27" fill="none" xmlns="http://www.w3.org/2000/svg">
<g clip-path="url(#clip0_1145_16822)">
<path d="M24.2841 23.4007L22.7304 5.89071C22.7025 5.54419 22.4118 5.28152 22.0597 5.28152H18.7846C18.779 2.3697 16.4093 0 13.4975 0C10.5857 0 8.21601 2.3697 8.21042 5.28152H4.93532C4.58881 5.28152 4.29819 5.54419 4.26465 5.89071L2.71094 23.4007C2.71094 23.4231 2.71094 23.4399 2.71094 23.4622C2.71094 25.4128 4.50498 27 6.707 27H20.288C22.4901 27 24.2841 25.4128 24.2841 23.4622C24.2841 23.4399 24.2841 23.4231 24.2841 23.4007ZM13.4975 1.34134C15.6716 1.34134 17.4377 3.10743 17.4433 5.28152H9.55176C9.55735 3.10743 11.3234 1.34134 13.4975 1.34134ZM20.288 25.6531H6.707C5.25389 25.6531 4.06904 24.6862 4.05227 23.4846L5.5501 6.62285H8.21042V8.97578C8.21042 9.34465 8.51222 9.64645 8.88109 9.64645C9.24996 9.64645 9.55176 9.34465 9.55176 8.97578V6.62285H17.4433V8.97578C17.4433 9.34465 17.7451 9.64645 18.114 9.64645C18.4828 9.64645 18.7846 9.34465 18.7846 8.97578V6.62285H21.4449L22.9428 23.4902C22.926 24.6862 21.7412 25.6531 20.288 25.6531Z" fill="#00B307"/>
<path d="M16.2876 13.9604L12.3307 17.9173L10.7155 16.3022C10.4528 16.0395 10.028 16.0395 9.76537 16.3022C9.50269 16.5648 9.50269 16.9896 9.76537 17.2523L11.8556 19.3425C11.9842 19.4711 12.1574 19.5381 12.3307 19.5381C12.5039 19.5381 12.6716 19.4711 12.8057 19.3425L17.2377 14.9105C17.5004 14.6478 17.5004 14.2231 17.2377 13.9604C16.975 13.7033 16.5503 13.7033 16.2876 13.9604Z" fill="#00B307"/>
</g>
<defs>
<clipPath id="clip0_1145_16822">
<rect width="27" height="27" fill="white"/>
</clipPath>
</defs>
</svg>
