<svg width="30" height="30" viewBox="0 0 30 30" fill="none" xmlns="http://www.w3.org/2000/svg">
<g clip-path="url(#clip0_1145_16796)">
<path d="M23.356 13.0268C23.2358 12.6559 22.9211 12.3906 22.5352 12.3346L17.9599 11.6697L15.9139 7.52428C15.7416 7.17435 15.3922 6.95703 15.0021 6.95703C14.6121 6.95703 14.2626 7.17436 14.0904 7.52393L12.0442 11.6697L7.46895 12.3346C7.08322 12.3906 6.76869 12.6557 6.64805 13.0267C6.52781 13.3971 6.62631 13.7964 6.90539 14.0688L10.2162 17.2959L9.43465 21.8526C9.36861 22.2368 9.52348 22.6179 9.83895 22.8471C10.0172 22.9767 10.2258 23.0426 10.4357 23.0425C10.5973 23.0425 10.7597 23.0035 10.9098 22.9246L15.0021 20.7732L19.0941 22.9247C19.2394 23.001 19.403 23.0414 19.5671 23.0414C19.7834 23.0414 19.9901 22.9742 20.165 22.8471C20.4799 22.6181 20.635 22.2372 20.5693 21.8528L20.2601 20.05C20.2158 19.7922 19.9707 19.619 19.7132 19.6632C19.4553 19.7074 19.2821 19.9524 19.3264 20.2102L19.6355 22.0126C19.6399 22.0387 19.629 22.0655 19.6079 22.0808C19.5765 22.1037 19.5537 22.096 19.5347 22.0861L15.2222 19.8188C15.0843 19.7463 14.9196 19.7463 14.7814 19.8188L10.4685 22.0862C10.4454 22.0983 10.4168 22.0962 10.3956 22.0808C10.3741 22.0652 10.3635 22.0393 10.368 22.0129L11.1918 17.2106C11.2182 17.0569 11.1673 16.9002 11.0556 16.7913L7.56662 13.3907C7.54775 13.3722 7.54072 13.3442 7.54875 13.3195C7.55689 13.2945 7.57893 13.2758 7.60488 13.2721L12.4266 12.5714C12.581 12.549 12.7143 12.4521 12.7833 12.3123L14.9399 7.94287C14.9633 7.89535 15.0404 7.89494 15.064 7.94311L17.2205 12.3123C17.2895 12.4521 17.4229 12.549 17.5772 12.5714L22.399 13.2721C22.4249 13.2759 22.4468 13.2943 22.455 13.3197C22.4631 13.3445 22.4561 13.3723 22.4374 13.3905L18.9483 16.7913C18.8367 16.9002 18.7857 17.057 18.8122 17.2106L19.0724 18.7279C19.1166 18.9857 19.3616 19.1589 19.6193 19.1147C19.8772 19.0705 20.0504 18.8255 20.0061 18.5677L19.7879 17.2959L23.0988 14.0687C23.378 13.7963 23.4765 13.397 23.356 13.0268Z" fill="#00B307" stroke="#00B307" stroke-width="0.225"/>
<path d="M2.72355 14.5254H0.473672C0.212051 14.5254 0 14.7374 0 14.9991C0 15.2607 0.212051 15.4727 0.473672 15.4727H2.72355C2.98523 15.4727 3.19723 15.2606 3.19723 14.9991C3.19723 14.7374 2.98518 14.5254 2.72355 14.5254Z" fill="#00B307" stroke="#00B307" stroke-width="0.225"/>
<path d="M29.5263 14.5254H27.2764C27.0147 14.5254 26.8027 14.7375 26.8027 14.9991C26.8027 15.2607 27.0148 15.4727 27.2764 15.4727H29.5263C29.7879 15.4727 29.9999 15.2606 29.9999 14.9991C29.9999 14.7374 29.7879 14.5254 29.5263 14.5254Z" fill="#00B307" stroke="#00B307" stroke-width="0.225"/>
<path d="M5.98552 23.3477L4.39465 24.9385C4.20961 25.1235 4.20961 25.4234 4.39459 25.6084C4.48711 25.7009 4.60834 25.7471 4.72957 25.7471C4.85074 25.7471 4.97203 25.7009 5.06443 25.6085L6.65531 24.0176C6.84035 23.8326 6.84035 23.5327 6.65537 23.3477C6.47039 23.1627 6.17045 23.1627 5.98552 23.3477Z" fill="#00B307" stroke="#00B307" stroke-width="0.225"/>
<path d="M24.9367 4.39271L23.3458 5.98353C23.1608 6.16851 23.1608 6.46845 23.3458 6.65343C23.4383 6.74595 23.5595 6.79218 23.6807 6.79218C23.802 6.79218 23.9232 6.74595 24.0156 6.65337L25.6065 5.06255C25.7916 4.87763 25.7916 4.57769 25.6066 4.39271C25.4216 4.20767 25.1217 4.20761 24.9367 4.39271Z" fill="#00B307" stroke="#00B307" stroke-width="0.225"/>
<path d="M14.9991 26.8047C14.7374 26.8047 14.5254 27.0168 14.5254 27.2784V29.5282C14.5254 29.7898 14.7374 30.0019 14.9991 30.0019C15.2607 30.0019 15.4727 29.7897 15.4727 29.5282V27.2784C15.4727 27.0167 15.2607 26.8047 14.9991 26.8047Z" fill="#00B307" stroke="#00B307" stroke-width="0.225"/>
<path d="M14.9991 3.19723C15.2607 3.19723 15.4727 2.98512 15.4727 2.72355V0.473672C15.4727 0.212051 15.2607 0 14.9991 0C14.7374 0 14.5254 0.212109 14.5254 0.473672V2.72355C14.5254 2.98518 14.7374 3.19723 14.9991 3.19723Z" fill="#00B307" stroke="#00B307" stroke-width="0.225"/>
<path d="M24.0156 23.3477C23.8307 23.1627 23.5308 23.1627 23.3458 23.3477C23.1608 23.5326 23.1608 23.8326 23.3458 24.0176L24.9367 25.6085C25.0292 25.701 25.1505 25.7472 25.2717 25.7472C25.3928 25.7472 25.5141 25.701 25.6066 25.6084C25.7916 25.4235 25.7916 25.1235 25.6065 24.9385L24.0156 23.3477Z" fill="#00B307" stroke="#00B307" stroke-width="0.225"/>
<path d="M5.98547 6.65337C6.07799 6.74589 6.19922 6.79212 6.32045 6.79212C6.44162 6.79212 6.56291 6.74589 6.65537 6.65349C6.84035 6.46851 6.84035 6.16856 6.65537 5.98358L5.0645 4.39264C4.87957 4.20766 4.57969 4.20766 4.39459 4.39264C4.20961 4.57756 4.20961 4.87751 4.39459 5.06249L5.98547 6.65337Z" fill="#00B307" stroke="#00B307" stroke-width="0.225"/>
</g>
<defs>
<clipPath id="clip0_1145_16796">
<rect width="30" height="30" fill="white"/>
</clipPath>
</defs>
</svg>
