<svg width="51" height="40" viewBox="0 0 51 40" fill="none" xmlns="http://www.w3.org/2000/svg">
<path d="M48.45 0H2.55C1.14172 0 0 1.14162 0 2.55V36.55C0 37.9582 1.14162 39.1 2.55 39.1H48.45C49.8583 39.1 51 37.9583 51 36.55V2.55C51 1.14172 49.8584 0 48.45 0ZM49.3 36.5501C49.3 37.0195 48.9195 37.4 48.45 37.4H2.55C2.08054 37.4 1.70003 37.0195 1.70003 36.5501V2.55C1.70003 2.08054 2.08054 1.70003 2.55 1.70003H48.45C48.9195 1.70003 49.3 2.08054 49.3 2.55V36.5501Z" fill="#2C742F"/>
<path d="M46.8244 3.40367C46.5998 3.38405 46.3766 3.45447 46.2039 3.5995L26.5943 20.0724C25.9619 20.604 25.0388 20.604 24.4064 20.0724L4.79703 3.5994C4.56444 3.40417 4.24529 3.34779 3.95991 3.45158C3.67453 3.55538 3.46614 3.8036 3.41335 4.10273C3.36056 4.40186 3.47132 4.70636 3.70391 4.9016L23.3134 21.3737C24.5773 22.4378 26.4236 22.4378 27.6876 21.3737L47.297 4.9017C47.4697 4.75677 47.5777 4.54918 47.5973 4.32456C47.6169 4.09994 47.5465 3.87672 47.4014 3.70409C47.2566 3.53127 47.049 3.4233 46.8244 3.40367Z" fill="#2C742F"/>
<path d="M16.3483 21.2568C16.0474 21.1896 15.7338 21.2906 15.5286 21.5207L3.62856 34.2707C3.41321 34.4913 3.33412 34.8112 3.42197 35.1066C3.50983 35.4022 3.75079 35.6269 4.05161 35.694C4.35253 35.7612 4.6661 35.6602 4.87129 35.4301L16.7713 22.6801C16.9867 22.4595 17.0658 22.1396 16.9779 21.8442C16.8901 21.5487 16.6492 21.3239 16.3483 21.2568Z" fill="#2C742F"/>
<path d="M35.4709 21.5207C35.2658 21.2906 34.9521 21.1896 34.6512 21.2568C34.3503 21.3239 34.1094 21.5487 34.0216 21.8442C33.9337 22.1397 34.0128 22.4595 34.2282 22.6801L46.1282 35.4301C46.4509 35.7606 46.9785 35.7729 47.3162 35.4578C47.654 35.1426 47.6783 34.6155 47.3709 34.2706L35.4709 21.5207Z" fill="#2C742F"/>
</svg>
